<svg xmlns="http://www.w3.org/2000/svg" viewBox="0 0 185 46" fill="none">
  <defs>
    <radialGradient id="logo-glow" cx="50%" cy="70%" r="60%">
      <stop offset="0%" stop-color="#F4A466" stop-opacity="0.65"/>
      <stop offset="60%" stop-color="#D96A3C" stop-opacity="0.12"/>
      <stop offset="100%" stop-color="#D96A3C" stop-opacity="0"/>
    </radialGradient>
    <linearGradient id="logo-fill" x1="0" y1="0" x2="0" y2="1">
      <stop offset="0%" stop-color="#F4A466"/>
      <stop offset="55%" stop-color="#D96A3C"/>
      <stop offset="100%" stop-color="#B54A22"/>
    </linearGradient>
  </defs>

  <circle cx="20" cy="33" r="22" fill="url(#logo-glow)"/>

  <path d="M20 4 C 22 12, 30 14, 30 24 C 30 33, 25 40, 20 40 C 15 40, 10 34, 10 26 C 10 22, 13 20, 14 18 C 15 22, 17 22, 17 18 C 17 14, 19 10, 20 4 Z" fill="url(#logo-fill)"/>
  <path d="M20 18 C 21 22, 24 23, 24 28 C 24 33, 22 36, 20 36 C 18 36, 16 33, 16 29 C 16 26, 18 24, 20 18 Z" fill="#F4A466" opacity="0.8"/>

  <text x="50" y="34" font-family="Fraunces, Georgia, serif" font-weight="600" font-size="30" letter-spacing="-0.3" fill="#2A1F1B">Ember</text>
</svg>
